<svg width="20" height="20" viewBox="0 0 20 20" fill="none" xmlns="http://www.w3.org/2000/svg">
<path d="M18.3337 7.50035L13.3337 12.5003M13.3337 7.50035L18.3337 12.5003M9.16699 3.91868C9.16682 3.80261 9.13228 3.68919 9.06771 3.59273C9.00314 3.49627 8.91145 3.4211 8.8042 3.3767C8.69696 3.33231 8.57896 3.32068 8.46511 3.34327C8.35126 3.36587 8.24665 3.42169 8.16449 3.50368L5.34449 6.32285C5.23566 6.43233 5.10619 6.51912 4.96357 6.5782C4.82095 6.63728 4.66803 6.66747 4.51366 6.66702H2.50033C2.27931 6.66702 2.06735 6.75481 1.91107 6.91109C1.75479 7.06737 1.66699 7.27934 1.66699 7.50035V12.5003C1.66699 12.7214 1.75479 12.9333 1.91107 13.0896C2.06735 13.2459 2.27931 13.3337 2.50033 13.3337H4.51366C4.66803 13.3332 4.82095 13.3634 4.96357 13.4225C5.10619 13.4816 5.23566 13.5684 5.34449 13.6778L8.16366 16.4978C8.24582 16.5802 8.35058 16.6363 8.46465 16.659C8.57872 16.6817 8.69698 16.6701 8.80443 16.6256C8.91188 16.581 9.0037 16.5056 9.06824 16.4088C9.13278 16.3121 9.16715 16.1983 9.16699 16.082V3.91868Z" stroke="#B50808" stroke-width="1.66667" stroke-linecap="round" stroke-linejoin="round"/>
</svg>
