<svg xmlns="http://www.w3.org/2000/svg" width="1200" height="600" viewBox="0 0 1200 600">
  <rect width="1200" height="600" fill="#fffaf2" />
  <text x="80" y="40" font-family="Helvetica, Arial, sans-serif" font-size="24" fill="#111">Strategy Canvas</text>
  <line x1="80" y1="520" x2="1120" y2="520" stroke="#ccc" />
  <line x1="80" y1="80" x2="80" y2="520" stroke="#ccc" />
  <polyline fill="none" stroke="#ff5a5f" stroke-width="3" points="80.0,80.0 210.0,80.0 340.0,80.0 470.0,80.0 600.0,168.0 730.0,80.0 860.0,80.0 990.0,344.0 1120.0,344.0" /><polyline fill="none" stroke="#5f9ea0" stroke-width="3" points="80.0,432.0 210.0,256.0 340.0,256.0 470.0,432.0 600.0,256.0 730.0,256.0 860.0,344.0 990.0,168.0 1120.0,80.0" /><polyline fill="none" stroke="#9370db" stroke-width="3" points="80.0,432.0 210.0,344.0 340.0,256.0 470.0,432.0 600.0,168.0 730.0,344.0 860.0,344.0 990.0,80.0 1120.0,168.0" /><polyline fill="none" stroke="#f4a261" stroke-width="3" points="80.0,432.0 210.0,256.0 340.0,344.0 470.0,432.0 600.0,344.0 730.0,344.0 860.0,432.0 990.0,344.0 1120.0,344.0" />
  <text x="80.0" y="550" text-anchor="middle" font-size="12" fill="#555">Geo focus</text><text x="210.0" y="550" text-anchor="middle" font-size="12" fill="#555">Instant go live</text><text x="340.0" y="550" text-anchor="middle" font-size="12" fill="#555">Viewer interactivity</text><text x="470.0" y="550" text-anchor="middle" font-size="12" fill="#555">Map visibility</text><text x="600.0" y="550" text-anchor="middle" font-size="12" fill="#555">Creator rewards</text><text x="730.0" y="550" text-anchor="middle" font-size="12" fill="#555">Safety by design</text><text x="860.0" y="550" text-anchor="middle" font-size="12" fill="#555">Local fame</text><text x="990.0" y="550" text-anchor="middle" font-size="12" fill="#555">Production polish</text><text x="1120.0" y="550" text-anchor="middle" font-size="12" fill="#555">Global reach</text>
</svg>
