<svg width="278" height="278" viewBox="0 0 278 278" fill="none" xmlns="http://www.w3.org/2000/svg">
<g filter="url(#filter0_d_163_5275)">
<path d="M200.83 40.0144C204.626 38.9281 208.598 38.6021 212.52 39.054C216.443 39.506 220.238 40.7275 223.689 42.649C227.139 44.5709 230.178 47.155 232.631 50.2537C235.085 53.3522 236.905 56.9046 237.989 60.7081C239.072 64.5118 239.397 68.4927 238.945 72.4222C238.493 76.3515 237.273 80.1534 235.354 83.6101H235.352L157.696 223.649C155.435 227.723 152.261 231.214 148.425 233.851C144.598 236.481 140.216 238.187 135.621 238.836L131.385 239.142C123.493 239.131 115.845 236.002 110.173 230.305H110.171L48.0464 168.065L48.0327 168.053L47.5027 167.525C44.8793 164.857 42.7737 161.721 41.2965 158.276C39.7211 154.601 38.8921 150.649 38.8574 146.65C38.8229 142.651 39.5835 138.684 41.095 134.983C42.6067 131.281 44.8387 127.919 47.6611 125.091C50.4837 122.264 53.8404 120.028 57.5346 118.514C61.2288 116.999 65.1871 116.237 69.1782 116.272C73.1693 116.307 77.1136 117.137 80.7808 118.715C84.4483 120.293 87.7658 122.588 90.5389 125.465L90.5507 125.477L123.555 158.542L124.494 159.482L125.139 158.321L182.808 54.3494C184.725 50.8913 187.303 47.8448 190.395 45.3854C193.487 42.9258 197.034 41.1008 200.83 40.0144Z" fill="#06F441" stroke="white"/>
</g>
<defs>
<filter id="filter0_d_163_5275" x="-26.0375" y="-26.0365" width="332.076" height="332.076" filterUnits="userSpaceOnUse" color-interpolation-filters="sRGB">
<feFlood flood-opacity="0" result="BackgroundImageFix"/>
<feColorMatrix in="SourceAlpha" type="matrix" values="0 0 0 0 0 0 0 0 0 0 0 0 0 0 0 0 0 0 127 0" result="hardAlpha"/>
<feOffset/>
<feGaussianBlur stdDeviation="9.45"/>
<feComposite in2="hardAlpha" operator="out"/>
<feColorMatrix type="matrix" values="0 0 0 0 0.0235294 0 0 0 0 0.956863 0 0 0 0 0.254902 0 0 0 0.25 0"/>
<feBlend mode="normal" in2="BackgroundImageFix" result="effect1_dropShadow_163_5275"/>
<feBlend mode="normal" in="SourceGraphic" in2="effect1_dropShadow_163_5275" result="shape"/>
</filter>
</defs>
</svg>
