<svg width="47" height="47" viewBox="0 0 47 47" fill="none" xmlns="http://www.w3.org/2000/svg">
<g filter="url(#filter0_d_163_5300)">
<path d="M27.1956 19.2817C27.0408 19.1955 26.8707 19.1408 26.6948 19.1205C26.519 19.1002 26.3409 19.1149 26.1707 19.1636C26.0005 19.2123 25.8415 19.2941 25.7029 19.4044C25.5642 19.5146 25.4486 19.6512 25.3627 19.8062L22.8607 24.3171L21.4287 22.8826C21.3044 22.7536 21.1557 22.6508 20.9913 22.58C20.8269 22.5092 20.65 22.472 20.4711 22.4704C20.2921 22.4689 20.1147 22.503 19.949 22.5709C19.7834 22.6388 19.6329 22.7391 19.5064 22.8659C19.3798 22.9926 19.2798 23.1434 19.212 23.3093C19.1442 23.4752 19.1101 23.653 19.1117 23.8323C19.1133 24.0116 19.1504 24.1887 19.2211 24.3535C19.2917 24.5182 19.3944 24.6672 19.5231 24.7917L22.2185 27.4921C22.4732 27.7479 22.8169 27.8884 23.1713 27.8884L23.358 27.8749C23.5645 27.8459 23.7616 27.7693 23.9336 27.6511C24.1056 27.5329 24.2479 27.3763 24.3492 27.1937L27.7185 21.1179C27.8045 20.9629 27.8592 20.7925 27.8795 20.6164C27.8998 20.4402 27.8852 20.2618 27.8366 20.0913C27.7881 19.9208 27.7065 19.7615 27.5965 19.6226C27.4865 19.4837 27.3503 19.3678 27.1956 19.2817Z" fill="white"/>
</g>
<defs>
<filter id="filter0_d_163_5300" x="-1.12928" y="-1.12928" width="49.3455" height="49.3455" filterUnits="userSpaceOnUse" color-interpolation-filters="sRGB">
<feFlood flood-opacity="0" result="BackgroundImageFix"/>
<feColorMatrix in="SourceAlpha" type="matrix" values="0 0 0 0 0 0 0 0 0 0 0 0 0 0 0 0 0 0 127 0" result="hardAlpha"/>
<feOffset/>
<feGaussianBlur stdDeviation="9.45"/>
<feComposite in2="hardAlpha" operator="out"/>
<feColorMatrix type="matrix" values="0 0 0 0 0.0235294 0 0 0 0 0.956863 0 0 0 0 0.254902 0 0 0 0.25 0"/>
<feBlend mode="normal" in2="BackgroundImageFix" result="effect1_dropShadow_163_5300"/>
<feBlend mode="normal" in="SourceGraphic" in2="effect1_dropShadow_163_5300" result="shape"/>
</filter>
</defs>
</svg>
