<svg width="284" height="284" viewBox="0 0 284 284" fill="none" xmlns="http://www.w3.org/2000/svg">
<g filter="url(#filter0_d_163_5262)">
<mask id="path-1-inside-1_163_5262" fill="white">
<path d="M202.46 45.3843L142.001 105.845C121.849 85.7002 101.691 65.5357 81.5357 45.3843C58.2197 22.0689 22.0783 58.2224 45.3748 81.5444C65.5332 101.683 85.6981 121.85 105.834 142.002C85.6888 162.163 65.5359 182.315 45.3748 202.459C22.0783 225.768 58.2229 261.912 81.5357 238.62C101.691 218.458 121.845 198.304 141.998 178.155L202.457 238.62C225.773 261.928 261.924 225.772 238.618 202.459C218.462 182.303 198.304 162.148 178.142 141.995C198.3 121.836 218.458 101.68 238.618 81.5249C261.927 58.2224 225.776 22.0689 202.457 45.3973"/>
</mask>
<path d="M202.46 45.3843L142.001 105.845C121.849 85.7002 101.691 65.5357 81.5357 45.3843C58.2197 22.0689 22.0783 58.2224 45.3748 81.5444C65.5332 101.683 85.6981 121.85 105.834 142.002C85.6888 162.163 65.5359 182.315 45.3748 202.459C22.0783 225.768 58.2229 261.912 81.5357 238.62C101.691 218.458 121.845 198.304 141.998 178.155L202.457 238.62C225.773 261.928 261.924 225.772 238.618 202.459C218.462 182.303 198.304 162.148 178.142 141.995C198.3 121.836 218.458 101.68 238.618 81.5249C261.927 58.2224 225.776 22.0689 202.457 45.3973" fill="#EC1C24"/>
<path d="M142.001 105.845L140.585 107.262L142.001 108.677L143.417 107.261L142.001 105.845ZM81.5357 45.3843L80.1195 46.8005L80.1196 46.8006L81.5357 45.3843ZM45.3748 81.5444L43.9578 82.9598L43.9593 82.9613L45.3748 81.5444ZM105.834 142.002L107.25 143.418L108.665 142.002L107.25 140.586L105.834 142.002ZM45.3748 202.459L43.9592 201.043L43.9582 201.044L45.3748 202.459ZM81.5357 238.62L82.9512 240.036L82.9521 240.036L81.5357 238.62ZM141.998 178.155L143.414 176.739L141.998 175.323L140.582 176.739L141.998 178.155ZM202.457 238.62L201.04 240.036L201.041 240.036L202.457 238.62ZM238.618 202.459L240.034 201.043L240.034 201.043L238.618 202.459ZM178.142 141.995L176.726 140.579L175.31 141.996L176.727 143.412L178.142 141.995ZM238.618 81.5249L237.202 80.1084L237.202 80.1085L238.618 81.5249ZM202.46 45.3843L201.044 43.9681L140.585 104.429L142.001 105.845L143.417 107.261L203.876 46.8005L202.46 45.3843ZM142.001 105.845L143.417 104.429C123.265 84.2836 103.108 64.1201 82.9517 43.968L81.5357 45.3843L80.1196 46.8006C100.274 66.9514 120.433 87.1168 140.585 107.262L142.001 105.845ZM81.5357 45.3843L82.9518 43.9681C76.7219 37.7383 69.5238 35.4012 62.6225 35.9213C55.776 36.4373 49.3674 39.7503 44.5592 44.5592C39.7511 49.3681 36.4383 55.7781 35.9208 62.6257C35.3991 69.5281 37.7329 76.728 43.9578 82.9598L45.3748 81.5444L46.7917 80.1289C41.3685 74.6997 39.4837 68.6347 39.915 62.9276C40.3505 57.1658 43.1622 51.6217 47.3919 47.3914C51.6215 43.1611 57.1639 40.3497 62.9236 39.9156C68.6284 39.4856 74.6914 41.3726 80.1195 46.8005L81.5357 45.3843ZM45.3748 81.5444L43.9593 82.9613C64.1171 103.099 84.2816 123.266 104.417 143.418L105.834 142.002L107.25 140.586C87.1145 120.435 66.9492 100.266 46.7903 80.1275L45.3748 81.5444ZM105.834 142.002L104.417 140.586C84.2725 160.747 64.1199 180.899 43.9592 201.043L45.3748 202.459L46.7904 203.876C66.9519 183.731 87.1052 163.579 107.25 143.418L105.834 142.002ZM45.3748 202.459L43.9582 201.044C37.733 207.272 35.3993 214.469 35.9213 221.37C36.4391 228.215 39.7524 234.623 44.5606 239.431C49.3688 244.239 55.7773 247.553 62.6232 248.071C69.5239 248.593 76.7217 246.26 82.9512 240.036L81.5357 238.62L80.1201 237.203C74.6932 242.625 68.6307 244.509 62.9256 244.077C57.1657 243.641 51.6229 240.829 47.393 236.599C43.163 232.369 40.3511 226.827 39.9155 221.067C39.4839 215.363 41.3683 209.301 46.7913 203.875L45.3748 202.459ZM81.5357 238.62L82.9521 240.036C103.107 219.874 123.261 199.72 143.414 179.572L141.998 178.155L140.582 176.739C120.429 196.887 100.275 217.042 80.1192 237.204L81.5357 238.62ZM141.998 178.155L140.582 179.572L201.04 240.036L202.457 238.62L203.873 237.203L143.414 176.739L141.998 178.155ZM202.457 238.62L201.041 240.036C207.271 246.264 214.47 248.6 221.372 248.078C228.219 247.561 234.628 244.248 239.437 239.439C244.245 234.63 247.559 228.22 248.076 221.373C248.597 214.471 246.262 207.273 240.034 201.043L238.618 202.459L237.201 203.875C242.627 209.302 244.512 215.366 244.081 221.071C243.646 226.832 240.835 232.376 236.604 236.606C232.374 240.837 226.83 243.649 221.07 244.084C215.364 244.515 209.301 242.629 203.873 237.203L202.457 238.62ZM238.618 202.459L240.034 201.043C219.879 180.886 199.72 160.732 179.558 140.579L178.142 141.995L176.727 143.412C196.888 163.564 217.046 183.719 237.201 203.876L238.618 202.459ZM178.142 141.995L179.559 143.412C199.716 123.253 219.874 103.096 240.034 82.9412L238.618 81.5249L237.202 80.1085C217.042 100.263 196.884 120.42 176.726 140.579L178.142 141.995ZM238.618 81.5249L240.034 82.9413C246.262 76.7145 248.598 69.518 248.078 62.6179C247.561 55.7727 244.248 49.3648 239.439 44.558C234.63 39.7511 228.22 36.4402 221.372 35.9265C214.47 35.4086 207.271 37.7484 201.04 43.9814L202.457 45.3973L203.873 46.8132C209.302 41.382 215.367 39.4928 221.073 39.9208C226.834 40.353 232.377 43.1627 236.607 47.391C240.837 51.6193 243.649 57.161 244.083 62.9194C244.514 68.6229 242.628 74.684 237.202 80.1084L238.618 81.5249Z" fill="white" mask="url(#path-1-inside-1_163_5262)"/>
</g>
<defs>
<filter id="filter0_d_163_5262" x="-24.0339" y="-24.0329" width="332.066" height="332.066" filterUnits="userSpaceOnUse" color-interpolation-filters="sRGB">
<feFlood flood-opacity="0" result="BackgroundImageFix"/>
<feColorMatrix in="SourceAlpha" type="matrix" values="0 0 0 0 0 0 0 0 0 0 0 0 0 0 0 0 0 0 127 0" result="hardAlpha"/>
<feOffset/>
<feGaussianBlur stdDeviation="9.45"/>
<feComposite in2="hardAlpha" operator="out"/>
<feColorMatrix type="matrix" values="0 0 0 0 0.92549 0 0 0 0 0.109804 0 0 0 0 0.141176 0 0 0 0.25 0"/>
<feBlend mode="normal" in2="BackgroundImageFix" result="effect1_dropShadow_163_5262"/>
<feBlend mode="normal" in="SourceGraphic" in2="effect1_dropShadow_163_5262" result="shape"/>
</filter>
</defs>
</svg>
