<svg width="20" height="20" viewBox="0 0 20 20" fill="none" xmlns="http://www.w3.org/2000/svg">
<path d="M2.5 3.75V7.91667C2.5 8.60833 3.05833 9.16667 3.75 9.16667H7.91667C8.60833 9.16667 9.16667 8.60833 9.16667 7.91667V3.75C9.16667 3.05833 8.60833 2.5 7.91667 2.5H3.75C3.05833 2.5 2.5 3.05833 2.5 3.75ZM4.16667 4.16667H7.5V7.5H4.16667V4.16667ZM2.5 16.25C2.5 16.9417 3.05833 17.5 3.75 17.5H7.91667C8.60833 17.5 9.16667 16.9417 9.16667 16.25V12.0833C9.16667 11.3917 8.60833 10.8333 7.91667 10.8333H3.75C3.05833 10.8333 2.5 11.3917 2.5 12.0833V16.25ZM4.16667 12.5H7.5V15.8333H4.16667V12.5ZM16.25 2.5H12.0833C11.3917 2.5 10.8333 3.05833 10.8333 3.75V7.91667C10.8333 8.60833 11.3917 9.16667 12.0833 9.16667H16.25C16.9417 9.16667 17.5 8.60833 17.5 7.91667V3.75C17.5 3.05833 16.9417 2.5 16.25 2.5ZM15.8333 7.5H12.5V4.16667H15.8333V7.5ZM10.8333 10.8333H12.5V12.5H10.8333V10.8333ZM12.5 12.5H14.1667V14.1667H12.5V12.5ZM10.8333 14.1667H12.5V15.8333H10.8333V14.1667ZM14.1667 14.1667H15.8333V15.8333H14.1667V14.1667ZM15.8333 15.8333H17.5V17.5H15.8333V15.8333ZM12.5 15.8333H14.1667V17.5H12.5V15.8333ZM14.1667 10.8333H15.8333V12.5H14.1667V10.8333ZM15.8333 12.5H17.5V14.1667H15.8333V12.5Z" fill="white"/>
</svg>
