<svg width="16" height="16" viewBox="0 0 16 16" fill="none" xmlns="http://www.w3.org/2000/svg">
<path d="M9.0205 6.85383C9.30313 6.57072 9.44444 6.23056 9.44444 5.83333C9.44444 5.43611 9.30313 5.09618 9.0205 4.81356C8.73787 4.53093 8.3977 4.38937 8 4.38889C7.6023 4.38841 7.26237 4.52996 6.98022 4.81356C6.69807 5.09715 6.55652 5.43707 6.55555 5.83333C6.55459 6.22959 6.69615 6.56976 6.98022 6.85383C7.2643 7.13791 7.60422 7.27922 8 7.27778C8.39578 7.27633 8.73594 7.13502 9.0205 6.85383ZM4.38889 14.5V13.0556H7.27778V10.8167C6.68796 10.6843 6.16146 10.4346 5.69828 10.0677C5.23509 9.70083 4.89493 9.2403 4.67778 8.68611C3.775 8.57778 3.0198 8.18368 2.41217 7.50383C1.80454 6.82398 1.50048 6.02641 1.5 5.11111V4.38889C1.5 3.99167 1.64156 3.65174 1.92467 3.36911C2.20778 3.08648 2.5477 2.94493 2.94444 2.94444H4.38889V1.5H11.6111V2.94444H13.0556C13.4528 2.94444 13.7929 3.086 14.0761 3.36911C14.3592 3.65222 14.5005 3.99215 14.5 4.38889V5.11111C14.5 6.02593 14.1959 6.8235 13.5878 7.50383C12.9797 8.18417 12.2245 8.57826 11.3222 8.68611C11.1056 9.23981 10.7656 9.70035 10.3024 10.0677C9.83926 10.4351 9.31252 10.6847 8.72222 10.8167V13.0556H11.6111V14.5H4.38889ZM4.38889 7.13333V4.38889H2.94444V5.11111C2.94444 5.56852 3.07685 5.98091 3.34167 6.34828C3.60648 6.71565 3.95556 6.97733 4.38889 7.13333ZM11.6111 7.13333C12.0444 6.97685 12.3935 6.71493 12.6583 6.34756C12.9231 5.98019 13.0556 5.56804 13.0556 5.11111V4.38889H11.6111V7.13333Z" fill="white"/>
</svg>
