<svg width="15" height="15" viewBox="0 0 15 15" fill="none" xmlns="http://www.w3.org/2000/svg">
<path fill-rule="evenodd" clip-rule="evenodd" d="M3.54291 2.97528C3.55979 2.83337 3.60954 2.69735 3.68821 2.57804C3.76688 2.45873 3.8723 2.35941 3.99609 2.28799C4.11987 2.21657 4.25862 2.17502 4.40128 2.16662C4.54395 2.15823 4.6866 2.18324 4.81791 2.23965C5.48166 2.5234 6.96916 3.19778 8.85666 4.28715C10.7448 5.37715 12.0729 6.32903 12.6498 6.7609C13.1423 7.13028 13.1435 7.86278 12.6504 8.2334C12.0792 8.66278 10.7673 9.60215 8.85666 10.7059C6.94416 11.8097 5.47416 12.4759 4.81666 12.7559C4.25041 12.9978 3.61666 12.6309 3.54291 12.0203C3.45666 11.3065 3.29541 9.6859 3.29541 7.49715C3.29541 5.30965 3.45604 3.68965 3.54291 2.97528Z" fill="white"/>
</svg>
