<svg width="20" height="20" viewBox="0 0 20 20" fill="none" xmlns="http://www.w3.org/2000/svg">
<path d="M18.3332 7.50035L13.3332 12.5003M13.3332 7.50035L18.3332 12.5003M9.1665 3.91868C9.16634 3.80261 9.13179 3.68919 9.06722 3.59273C9.00266 3.49627 8.91096 3.4211 8.80372 3.3767C8.69647 3.33231 8.57847 3.32068 8.46462 3.34327C8.35077 3.36587 8.24616 3.42169 8.164 3.50368L5.344 6.32285C5.23517 6.43233 5.1057 6.51912 4.96308 6.5782C4.82046 6.63728 4.66754 6.66747 4.51317 6.66702H2.49984C2.27882 6.66702 2.06686 6.75481 1.91058 6.91109C1.7543 7.06737 1.6665 7.27934 1.6665 7.50035V12.5003C1.6665 12.7214 1.7543 12.9333 1.91058 13.0896C2.06686 13.2459 2.27882 13.3337 2.49984 13.3337H4.51317C4.66754 13.3332 4.82046 13.3634 4.96308 13.4225C5.1057 13.4816 5.23517 13.5684 5.344 13.6778L8.16317 16.4978C8.24534 16.5802 8.35009 16.6363 8.46416 16.659C8.57824 16.6817 8.69649 16.6701 8.80394 16.6256C8.91139 16.581 9.00321 16.5056 9.06775 16.4088C9.1323 16.3121 9.16667 16.1983 9.1665 16.082V3.91868Z" stroke="#B50808" stroke-width="1.66667" stroke-linecap="round" stroke-linejoin="round"/>
</svg>
