<svg width="16" height="16" viewBox="0 0 16 16" fill="none" xmlns="http://www.w3.org/2000/svg">
<path d="M8.2 1.8C8.6 3.6 7.5 4.7 6.7 5.8C7.5 5.7 8.3 5.1 8.7 4.3C10.2 5.5 11.3 7.1 11.3 9C11.3 11.2 9.7 13 7.5 13C5.3 13 3.7 11.2 3.7 9.1C3.7 7 4.9 5.7 6.5 4.1C6.9 5.1 6.9 5.9 6.6 6.6C7.7 5.8 8.2 4.6 8.2 1.8Z" stroke="currentColor" stroke-width="1.4" stroke-linecap="round" stroke-linejoin="round"/>
<path d="M7.7 7.4C8.6 8.1 9.1 8.8 9.1 9.6C9.1 10.5 8.3 11.3 7.4 11.3C6.5 11.3 5.7 10.5 5.7 9.6C5.7 8.7 6.3 8 6.9 7.3C7.1 7.8 7 8.3 6.9 8.7C7.3 8.4 7.6 7.9 7.7 7.4Z" fill="currentColor"/>
</svg>
