<svg width="40" height="40" viewBox="0 0 40 40" fill="none" xmlns="http://www.w3.org/2000/svg">
<path d="M20 2C10.0598 2 2 10.0598 2 20C2 29.9402 10.0598 38 20 38C29.9402 38 38 29.9402 38 20C38 10.0598 29.9402 2 20 2ZM26.7098 27.4571C25.0786 28.9598 22.8527 29.8438 20.1969 29.8438C16.3518 29.8438 13.025 27.6379 11.4058 24.4237C10.7388 23.0937 10.3571 21.5911 10.3571 20C10.3571 18.4089 10.7388 16.9062 11.4058 15.5763C13.025 12.358 16.3518 10.1522 20.1969 10.1522C22.8487 10.1522 25.0746 11.1286 26.7821 12.7156L23.9616 15.5402C22.9411 14.5638 21.6433 14.0696 20.2009 14.0696C17.6375 14.0696 15.4679 15.8013 14.6924 18.1277C14.4955 18.7183 14.383 19.3491 14.383 20C14.383 20.6509 14.4955 21.2817 14.6924 21.8723C15.4679 24.1987 17.6375 25.9304 20.1969 25.9304C21.5228 25.9304 22.6478 25.5808 23.5277 24.9902C24.5723 24.2911 25.2634 23.2504 25.4924 22.017H20.1969V18.208H29.4661C29.5826 18.8549 29.6429 19.5259 29.6429 20.221C29.6429 23.2223 28.5701 25.7415 26.7098 27.4571Z" fill="white"/>
</svg>
