<svg width="40" height="40" viewBox="0 0 40 40" fill="none" xmlns="http://www.w3.org/2000/svg">
<circle cx="20" cy="20" r="18" fill="white"/>
<path d="M21.4048 14.0008L22.1751 13.683C22.8005 13.4338 23.609 13.1794 24.5632 13.3403C26.5183 13.6706 27.8664 14.7309 28.6697 16.1371C28.9798 16.6792 28.7296 17.3937 28.1507 17.6211C27.6547 17.816 27.2307 18.16 26.9367 18.6061C26.6427 19.0522 26.493 19.5786 26.508 20.1134C26.5231 20.6482 26.7022 21.1652 27.0208 21.5939C27.3394 22.0226 27.782 22.342 28.2882 22.5084C28.8237 22.685 29.1256 23.2821 28.9499 23.8201C28.4929 25.2138 27.8354 26.5005 27.0569 27.5391C26.2877 28.5651 25.349 29.4167 24.3038 29.8332C23.6214 30.1032 22.8894 30.0025 22.1895 29.828L21.7739 29.7169L21.1567 29.5372C20.8766 29.4552 20.5881 29.3845 20.3048 29.3845C20.0205 29.3845 19.7331 29.4552 19.4529 29.5372L18.8357 29.7169L18.4201 29.828C17.7202 30.0025 16.9872 30.1042 16.3059 29.8332C14.9898 29.3098 13.8288 28.0885 12.9511 26.648C12.002 25.0612 11.3752 23.3013 11.1067 21.4699C10.872 19.856 10.9992 18.0438 11.7425 16.511C12.5076 14.9314 13.9095 13.7017 16.0464 13.3403C16.9148 13.1939 17.6613 13.3902 18.2588 13.6155L18.6011 13.7505L19.2048 14.0008C19.6184 14.1639 19.944 14.2594 20.3048 14.2594C20.6646 14.2594 20.9913 14.1639 21.4048 14.0008ZM20.065 9.93292C21.074 8.91828 22.6238 8.83105 22.9887 9.19869C23.3547 9.56529 23.2678 11.122 22.2578 12.1356C21.2487 13.1492 19.699 13.2365 19.3341 12.8699C18.9681 12.5033 19.0549 10.9465 20.065 9.93292Z" fill="#200042"/>
</svg>
