<svg width="39" height="40" viewBox="0 0 39 40" fill="none" xmlns="http://www.w3.org/2000/svg">
<path d="M17.4667 21.7333C17.4667 20.7833 16.6833 20 15.7333 20C14.7833 20 14 20.7833 14 21.7333C14 22.193 14.1826 22.6339 14.5077 22.959C14.8327 23.284 15.2736 23.4667 15.7333 23.4667C16.193 23.4667 16.6339 23.284 16.959 22.959C17.284 22.6339 17.4667 22.193 17.4667 21.7333ZM23.0333 25.6833C22.2833 26.4333 20.6833 26.7 19.55 26.7C18.4167 26.7 16.8167 26.4333 16.0667 25.6833C16.0261 25.6399 15.9771 25.6053 15.9226 25.5817C15.8681 25.558 15.8094 25.5458 15.75 25.5458C15.6906 25.5458 15.6319 25.558 15.5774 25.5817C15.5229 25.6053 15.4739 25.6399 15.4333 25.6833C15.3899 25.7239 15.3553 25.7729 15.3317 25.8274C15.308 25.8819 15.2958 25.9406 15.2958 26C15.2958 26.0594 15.308 26.1181 15.3317 26.1726C15.3553 26.2271 15.3899 26.2761 15.4333 26.3167C16.6167 27.5 18.8833 27.6 19.55 27.6C20.2167 27.6 22.4833 27.5 23.6667 26.3167C23.7101 26.2761 23.7447 26.2271 23.7683 26.1726C23.792 26.1181 23.8042 26.0594 23.8042 26C23.8042 25.9406 23.792 25.8819 23.7683 25.8274C23.7447 25.7729 23.7101 25.7239 23.6667 25.6833C23.5 25.5167 23.2167 25.5167 23.0333 25.6833ZM23.3667 20C22.4167 20 21.6333 20.7833 21.6333 21.7333C21.6333 22.6833 22.4167 23.4667 23.3667 23.4667C24.3167 23.4667 25.1 22.6833 25.1 21.7333C25.1 20.7833 24.3333 20 23.3667 20Z" fill="white"/>
<path d="M20 2C10.064 2 2 10.064 2 20C2 29.936 10.064 38 20 38C29.936 38 38 29.936 38 20C38 10.064 29.936 2 20 2ZM30.44 22.394C30.476 22.646 30.494 22.916 30.494 23.186C30.494 27.218 25.796 30.494 20 30.494C14.204 30.494 9.506 27.218 9.506 23.186C9.506 22.916 9.524 22.646 9.56 22.394C8.642 21.98 8.012 21.062 8.012 20C8.00933 19.4838 8.15924 18.9784 8.44291 18.5472C8.72657 18.1159 9.13133 17.7781 9.60636 17.5762C10.0814 17.3743 10.6055 17.3172 11.1128 17.4122C11.6202 17.5071 12.0882 17.7499 12.458 18.11C14.276 16.796 16.796 15.968 19.586 15.878L20.918 9.596C20.936 9.47 21.008 9.362 21.116 9.308C21.224 9.236 21.35 9.218 21.476 9.236L25.832 10.172C25.9797 9.87244 26.2049 9.61787 26.4842 9.43468C26.7635 9.25149 27.0867 9.14636 27.4203 9.1302C27.7539 9.11404 28.0858 9.18743 28.3815 9.34276C28.6772 9.49809 28.9259 9.7297 29.1019 10.0136C29.2779 10.2974 29.3748 10.6232 29.3824 10.9572C29.3901 11.2911 29.3082 11.621 29.1454 11.9126C28.9826 12.2042 28.7447 12.447 28.4564 12.6157C28.1682 12.7844 27.84 12.8729 27.506 12.872C26.498 12.872 25.688 12.08 25.634 11.09L21.728 10.262L20.54 15.878C23.294 15.968 25.76 16.814 27.56 18.11C27.8359 17.8465 28.1661 17.6465 28.5274 17.5239C28.8888 17.4014 29.2725 17.3592 29.6518 17.4005C30.0311 17.4417 30.3968 17.5653 30.7233 17.7627C31.0499 17.96 31.3294 18.2263 31.5422 18.5429C31.7551 18.8596 31.8962 19.2189 31.9557 19.5958C32.0152 19.9726 31.9916 20.358 31.8866 20.7248C31.7816 21.0916 31.5978 21.431 31.3479 21.7194C31.098 22.0077 30.7882 22.2379 30.44 22.394Z" fill="white"/>
</svg>
