<svg width="15" height="15" viewBox="0 0 15 15" fill="none" xmlns="http://www.w3.org/2000/svg">
<path d="M13.4748 1.56007C13.432 1.51303 13.3801 1.47516 13.3223 1.44874C13.2644 1.42233 13.2018 1.40792 13.1382 1.40639C13.0746 1.40485 13.0114 1.41623 12.9523 1.43982C12.8933 1.46342 12.8396 1.49874 12.7946 1.54366L12.4322 1.90431C12.3882 1.94825 12.3636 2.00785 12.3636 2.06998C12.3636 2.13211 12.3882 2.1917 12.4322 2.23565L12.7644 2.56729C12.7862 2.58917 12.8121 2.60653 12.8406 2.61838C12.8691 2.63023 12.8996 2.63633 12.9305 2.63633C12.9614 2.63633 12.9919 2.63023 13.0204 2.61838C13.049 2.60653 13.0748 2.58917 13.0966 2.56729L13.4499 2.21573C13.6286 2.03731 13.6453 1.74669 13.4748 1.56007ZM11.6994 2.63673L6.41078 7.91602C6.37871 7.94796 6.35541 7.98761 6.3431 8.03116L6.09847 8.75977C6.09261 8.77954 6.0922 8.80053 6.09727 8.82052C6.10235 8.8405 6.11272 8.85875 6.1273 8.87333C6.14188 8.88791 6.16013 8.89829 6.18011 8.90336C6.2001 8.90843 6.22109 8.90802 6.24086 8.90216L6.96888 8.65753C7.01243 8.64522 7.05209 8.62192 7.08402 8.58985L12.3633 3.30059C12.4122 3.25123 12.4396 3.18459 12.4396 3.11515C12.4396 3.0457 12.4122 2.97906 12.3633 2.9297L12.0718 2.63673C12.0224 2.58744 11.9554 2.55976 11.8856 2.55976C11.8158 2.55976 11.7489 2.58744 11.6994 2.63673Z" fill="white"/>
<path d="M11.3186 5.67363L7.74756 9.25166C7.60953 9.39 7.4399 9.49266 7.25332 9.55078L6.49453 9.80479C6.31445 9.85564 6.12407 9.85756 5.943 9.81034C5.76194 9.76313 5.59673 9.66848 5.46442 9.53617C5.3321 9.40385 5.23746 9.23865 5.19024 9.05758C5.14303 8.87652 5.14495 8.68613 5.1958 8.50605L5.4498 7.74727C5.50776 7.56075 5.61022 7.39112 5.74834 7.25303L9.32637 3.68145C9.35916 3.64868 9.38151 3.60693 9.39058 3.56147C9.39965 3.51601 9.39503 3.46888 9.37731 3.42604C9.35959 3.38321 9.32957 3.34659 9.29104 3.32081C9.25251 3.29504 9.2072 3.28127 9.16084 3.28125H3.04688C2.61175 3.28125 2.19445 3.4541 1.88678 3.76178C1.5791 4.06945 1.40625 4.48675 1.40625 4.92188V11.9531C1.40625 12.3882 1.5791 12.8055 1.88678 13.1132C2.19445 13.4209 2.61175 13.5938 3.04688 13.5938H10.0781C10.5132 13.5938 10.9305 13.4209 11.2382 13.1132C11.5459 12.8055 11.7188 12.3882 11.7188 11.9531V5.83916C11.7187 5.7928 11.705 5.74749 11.6792 5.70896C11.6534 5.67043 11.6168 5.64041 11.574 5.62269C11.5311 5.60497 11.484 5.60035 11.4385 5.60942C11.3931 5.61849 11.3513 5.64084 11.3186 5.67363Z" fill="white"/>
</svg>
