<svg width="20" height="20" viewBox="0 0 20 20" fill="none" xmlns="http://www.w3.org/2000/svg">
<path d="M2.50527 11.979C2.17465 11.4282 2 10.7979 2 10.1556C2 9.51317 2.17465 8.88287 2.50527 8.3321C2.60687 8.16252 2.74283 8.01608 2.9044 7.90218C3.06598 7.78828 3.24959 7.70944 3.44345 7.67074L5.04299 7.35045C5.13839 7.33156 5.22442 7.28054 5.28675 7.2059L7.2406 4.85996C8.35735 3.51835 8.91667 2.84848 9.41458 3.02894C9.91249 3.2094 9.91438 4.08239 9.91438 5.82838V14.4846C9.91438 16.2297 9.91438 17.1017 9.41552 17.2831C8.91761 17.4626 8.35829 16.7928 7.24154 15.4521L5.28486 13.1052C5.22277 13.0308 5.1371 12.9798 5.04205 12.9607L3.44251 12.6404C3.24865 12.6017 3.06503 12.5228 2.90346 12.4089C2.74188 12.295 2.60687 12.1486 2.50527 11.979Z" fill="white"/>
<path d="M12.3096 6.81446C13.1911 7.69596 13.6884 8.89016 13.6932 10.1368C13.698 11.3834 13.2098 12.5814 12.3351 13.4696M16.2031 4.81055C17.6135 6.22082 18.4093 8.13141 18.4171 10.1259C18.4249 12.1204 17.644 14.0372 16.2447 15.4584" stroke="white" stroke-width="1.66667" stroke-linecap="round"/>
</svg>
