<svg width="15" height="15" viewBox="0 0 15 15" fill="none" xmlns="http://www.w3.org/2000/svg">
<path fill-rule="evenodd" clip-rule="evenodd" d="M3.54315 2.97528C3.56003 2.83337 3.60979 2.69735 3.68846 2.57804C3.76713 2.45873 3.87254 2.35941 3.99633 2.28799C4.12012 2.21657 4.25886 2.17502 4.40153 2.16662C4.54419 2.15823 4.68685 2.18324 4.81815 2.23965C5.4819 2.5234 6.9694 3.19778 8.8569 4.28715C10.745 5.37715 12.0732 6.32903 12.65 6.7609C13.1425 7.13028 13.1438 7.86278 12.6507 8.2334C12.0794 8.66278 10.7675 9.60215 8.8569 10.7059C6.9444 11.8097 5.4744 12.4759 4.8169 12.7559C4.25065 12.9978 3.6169 12.6309 3.54315 12.0203C3.4569 11.3065 3.29565 9.6859 3.29565 7.49715C3.29565 5.30965 3.45628 3.68965 3.54315 2.97528Z" fill="white"/>
</svg>
