<svg width="20" height="20" viewBox="0 0 20 20" fill="none" xmlns="http://www.w3.org/2000/svg">
<path fill-rule="evenodd" clip-rule="evenodd" d="M5.4165 8.125C5.41639 7.53789 5.57134 6.96117 5.86569 6.45318C6.16004 5.94519 6.58333 5.52395 7.09275 5.23208C7.08692 4.86569 7.08373 4.44111 7.08317 3.95833C7.08317 2.89542 7.1015 2.12292 7.12067 1.60625C7.13859 1.10625 7.4765 0.695 7.97484 0.654167C8.18734 0.637083 8.44484 0.625 8.74984 0.625C9.05484 0.625 9.31234 0.637083 9.52484 0.654167C10.0232 0.695 10.3611 1.10625 10.379 1.60625C10.3982 2.12292 10.4165 2.89542 10.4165 3.95833C10.4162 4.44111 10.413 4.86569 10.4069 5.23208C10.915 5.52318 11.3374 5.94299 11.6317 6.44924C11.926 6.95549 12.0817 7.53033 12.0832 8.11589C12.0846 8.70145 11.9319 9.27707 11.6402 9.78481C11.3485 10.2926 10.9282 10.7145 10.4216 11.0082C9.91497 11.3018 9.33995 11.4569 8.75439 11.4577C8.16883 11.4585 7.59339 11.305 7.08599 11.0127C6.57859 10.7204 6.15714 10.2996 5.86406 9.7927C5.57098 9.28576 5.41662 8.71056 5.4165 8.125ZM11.6644 4.5875C11.6658 4.39028 11.6665 4.18056 11.6665 3.95833C11.6665 2.88125 11.6482 2.09333 11.6286 1.56042C11.6221 1.38812 11.5965 1.21708 11.5523 1.05042C14.614 2.09375 16.8286 4.94 16.8978 8.31L18.5144 10.5642C18.8032 10.9671 18.7728 11.5558 18.304 11.8429C17.9486 12.0596 17.4294 12.3125 16.7328 12.4971L16.4928 15.3429C16.4763 15.5385 16.4205 15.7288 16.3287 15.9023C16.237 16.0758 16.1111 16.2291 15.9587 16.3528C15.8063 16.4765 15.6305 16.5682 15.4418 16.6223C15.2532 16.6765 15.0555 16.692 14.8607 16.6679L13.8107 16.5379V17.7533C13.8107 18.3813 13.4019 18.9492 12.7611 19.0679C11.9898 19.2117 10.7261 19.375 8.97025 19.375C7.21442 19.375 5.95109 19.2117 5.17942 19.0679C4.539 18.9487 4.12942 18.3813 4.12942 17.7533V14.6875C2.25275 13.2533 1.0415 11.0029 1.0415 8.47208C1.0415 5.21208 3.04984 2.41792 5.90692 1.2325C5.88748 1.34083 5.87553 1.45014 5.87109 1.56042C5.8515 2.09333 5.83317 2.88125 5.83317 3.95833C5.83317 4.18056 5.83387 4.39028 5.83525 4.5875C5.31292 5.01714 4.89233 5.55724 4.60378 6.16893C4.31523 6.78061 4.16589 7.44867 4.1665 8.125C4.1665 10.5692 6.07984 12.5667 8.49025 12.7013C9.85192 13.9654 11.8332 14.7917 13.7498 14.7917C13.9156 14.7917 14.0746 14.7258 14.1918 14.6086C14.309 14.4914 14.3748 14.3324 14.3748 14.1667C14.3748 14.0009 14.309 13.8419 14.1918 13.7247C14.0746 13.6075 13.9156 13.5417 13.7498 13.5417C12.5323 13.5417 11.2628 13.1321 10.224 12.4663C12.0323 11.8525 13.3332 10.1404 13.3332 8.125C13.3338 7.44867 13.1844 6.78061 12.8959 6.16893C12.6073 5.55724 12.1868 5.01714 11.6644 4.5875Z" fill="white"/>
</svg>
